<?xml version="1.0" encoding="utf-8"?>
<!-- Generator: Adobe Illustrator 16.0.0, SVG Export Plug-In . SVG Version: 6.00 Build 0)  -->
<!DOCTYPE svg PUBLIC "-//W3C//DTD SVG 1.1//EN" "http://www.w3.org/Graphics/SVG/1.1/DTD/svg11.dtd">
<svg version="1.1" id="Layer_1_copy" xmlns="http://www.w3.org/2000/svg" xmlns:xlink="http://www.w3.org/1999/xlink" x="0px"
	 y="0px" width="841.89px" height="1190.55px" viewBox="0 0 841.89 1190.55" enable-background="new 0 0 841.89 1190.55"
	 xml:space="preserve">
<g id="Layer_2_1_" display="none">
	<path display="inline" fill="#172852" d="M420.944,1016.22C188.463,1016.22,0,827.755,0,595.275
		C0,362.793,188.463,174.33,420.944,174.33c232.481,0,420.946,188.463,420.946,420.945
		C841.89,827.755,653.425,1016.22,420.944,1016.22"/>
	<g display="inline">
		<path fill="#FFD83D" d="M339.071,362.45c49.292-18.438,104.774-18.479,154.991-3.325c65.373,20.29,120.559,69.624,149.395,131.544
			c7.955,17.639,15.574,36.033,16.332,55.65c-36.748-21.305-77.033-35.107-117.4-47.693
			c-64.566-23.279-132.173-39.443-193.294-71.435c-14.229-8.503-32.371-17.216-36.243-34.938
			C311.289,376.931,327.495,368.386,339.071,362.45"/>
		<path fill="#FFD83D" d="M190.267,511.464c14.27-38.727,37.674-74.675,69.456-101.321c8.082,66.467,36.37,130.704,83.094,179.028
			c56.023,58.217,135.838,93.956,217.04,92.608c32.244,1.01,63.773-6.439,95.217-12.459
			C624.134,781.123,501.597,855.335,388.07,837.486c-68.53-8.756-131.798-49.334-169.979-106.625
			C175.029,667.55,164.168,583.488,190.267,511.464z"/>
	</g>
	<path display="inline" fill="#FF6F03" d="M542.388,498.626c40.367,12.586,80.652,26.393,117.4,47.693l2.484,1.305
		c3.402,25.635,5.893,51.776,1.346,77.454c-18.48-7.83-33.465-21.594-49.123-33.757
		C584.355,566.229,553.585,537.521,542.388,498.626"/>
</g>
<g>
	<path d="M754.761,731.646c-1.547-74.314-25.072-158.391-36.252-193.796c-11.182-35.403-34.602-91.404-34.602-109.106
		s-3.508-44.729-8.168-60.568c-4.658-15.839-15.576-23.065-25.246-42.753c-8.313-16.912,2.795-44.722,4.658-64.288
		c1.861-19.566-7.891-138.488-51.244-123.917c-25.754,8.653-77.775,61.003-92.24,75.469c-19.564,19.566-111.884,9.517-131.371,1.863
		c-26.088-10.249-83.854-101.014-106.215-100.534c-31.838,0.688-14.389,110.111-28.479,126.76
		c-23.587,27.871-66.548,49.133-88.916,95.828c-61.368,128.1-56.833,200.314-47.517,233.856c6.169,22.208,20.529,41.923,21.43,54.97
		c1.863,27.021-24.197,69.883-30.747,104.352c-9.168,48.248,0.221,96.217,6.727,113.217c25.97,67.852,83.82,113.035,162.844,150.096
		c107.146,50.25,300.451,80.381,419.117-59.508C736.39,877.177,756.542,817.363,754.761,731.646z M683.544,842.355
		c-32.299,112.988-116.906,180.961-233.158,174.807c-133.93-5.42-224.982-61.516-272.235-102.703
		c-54.706-47.684-70.861-128.461-59.255-179.352c6.943-30.441,23.491-78.512,29.997-81.791c6.903-3.479,13.052,28.459,81.052,55.961
		c14.442,5.841,18.861,72.146,33.641,77.59c6.365,2.344,9.519-2.363,22.613-0.396c19.563,2.941,20.675,45.021,37.177,41.145
		c12.069-2.836,11.5-47.572,68.056-82.389c30.642-18.857,70.013-27.449,58.746-39.668c-9.41-8.859-79.73,17.221-141.209,6.795
		c-32.27-5.471-78.044-16.175-110.01-40.338c-46.18-34.907-60.775-76.933-70.22-99.69c-20.328-48.979-1.478-109.418,22.361-181.685
		c34.83-105.596,99.493-125.957,110.874-140.688c15.336-19.854,6.522-87.581,13.043-88.513c6.522-0.932,7.454,11.18,13.044,37.268
		s2.795,40.996,9.317,46.586c6.521,5.59,13.976-9.317,41.964-13.462c14.572-2.158,51.207,4.145,84.852,4.145
		c33.645,0,69.18,11.738,82.816,4.659c10.396-5.397,47.521-48.449,47.521-48.449s45.65-47.517,54.039-30.747
		c3.064,6.138,3.727,35.405-22.361,85.717s-49.525,51.084-42.857,67.083c4.658,11.18,27.805,0.601,35.471-2.799
		c14.551-6.456,24.875-11.149,28.82-5.008c10.369,16.141-10.842,23.127-17.707,33.896c-9.979,15.653,20.523,24.079,35.404,74.537
		c9.773,33.143,15.684,75.781-9.502,150.22c-33.58,99.233-113.393,103.69-107.338,127.563c3.945,13.127,65.945-28.873,74.912-18.77
		c9.479,10.428-7.109,32.699-27.227,63.152c-16.377,24.787-37.094,37.783-39.857,49.584c0.117,38.16,77.984-55.248,117.785-110.174
		c28.67-39.566,25.461-77.74,37.963-87.466C688.845,575.933,725.445,695.775,683.544,842.355z"/>
	<path d="M279.18,380.849c6.834,4.968,23.604-9.939,37.269-39.754c13.664-29.813,6.833-45.342,0-44.722
		c-6.833,0.623-11.182,22.983-18.635,42.859C290.361,359.109,273.049,376.391,279.18,380.849z"/>
	<path d="M372.49,552.276c-6.833-5.592-10.076,3.184-21.256,5.941c-17.118,4.228-36.961,6.107-49.125,3.381
		c-11.32-2.539-29.939-18.219-34.827-27.951c-17.91-35.663,16.181-45.964,15.627-63.979c-1.245-40.373-31.06-25.465-42.24-45.343
		c-8.707-15.48,11.93-19.968,28.017-54.554c10.657-22.916,30.372-61.598,13.863-65.052c-20.394-4.266-31.94,12.771-51.197,28.301
		c-13.062,10.534-9.24,22.732-16.771,31.676c-4.968,5.901,5.592,11.517,8.077,17.872c2.484,6.354,9.937,15.049,3.104,21.262
		c-6.831,6.209-48.929,32.68-52.317,45.742c-2.606,10.049-6.426,19.977-8.247,38.563c-3.108,31.68,22.498,68.351,26.748,80.637
		c4.499,13.002,21,15,33.133,14.543c8.166-0.31,15.882,7.983,21.804,9.962c13.044,4.349,49.07,3.726,59.008,0
		c9.939-3.729,8.734-7.454,21.762-11.182c13.023-3.728,30.034,0.22,37.868-6.832C377.944,564.087,379.322,557.867,372.49,552.276z
		 M199.906,522.325c-2.461,33.45-20.461-11.217-20.393-27.142c0.432-21.908,7.266-22.741,11.599-2.408
		S202.002,515.815,199.906,522.325z M235.079,359.109c0.623-5.59,1.864-9.938,8.076-8.944c0,0,2.032,2.446,1.695,10.497
		c-0.395,9.452-1.676,13.648-5.698,14.654C233.096,376.832,234.46,364.699,235.079,359.109z"/>
	<path d="M457.097,377.181c-6.83-13.524-12.486-21.797-27.186-26.146c-14.702-4.349-28.988,8.697-38.924,14.908
		c-9.94,6.211-48.449,23.602-52.178,41.616c-2.566,12.407,10.561,13.044,17.391,16.771c6.835,3.727,20.367,25.242,51.557,25.242
		c38.508,0,65.127-34.59,69.565-46.36C482.582,389.26,463.933,390.703,457.097,377.181z M417.694,413.07
		c-1.864,3.727-25.391-7.221-26.555-13.205c-1.769-9.084,15.373-22.434,17.226-19.172c1.851,3.261-7.813,8.808-3.485,16.445
		C410.473,407.013,419.557,409.342,417.694,413.07z"/>
</g>
</svg>
